<mxfile host="app.diagrams.net" agent="Mozilla/5.0 (Windows NT 10.0; Win64; x64) AppleWebKit/537.36 (KHTML, like Gecko) Chrome/133.0.0.0 Safari/537.36 Edg/133.0.0.0" version="26.0.16">
  <diagram name="Page-1" id="ddz5F4ONrxpT01cPosjm">
    <mxGraphModel dx="1282" dy="627" grid="1" gridSize="10" guides="1" tooltips="1" connect="1" arrows="1" fold="1" page="1" pageScale="1" pageWidth="850" pageHeight="1100" math="0" shadow="0">
      <root>
        <mxCell id="0" />
        <mxCell id="1" parent="0" />
        <mxCell id="Orjp2KS58vrXuPc0NU_Z-1" value="\documentclass{article}&#xa;\usepackage{tikz}&#xa;\begin{document}&#xa;&#xa;&#xa;\begin{center}&#xa;\begin{tikzpicture}[scale=1]&#xa;    \node (E) {E}&#xa;        child {node {-} &#xa;            child {node {E}&#xa;                child {node {(} &#xa;                    child {node {E}&#xa;                        child {node {E} &#xa;                            child {node {id}}&#xa;                        }&#xa;                        child {node {+}}&#xa;                        child {node {E} &#xa;                            child {node {id}}&#xa;                        }&#xa;                    }&#xa;                    child {node {)}}&#xa;                }&#xa;            }&#xa;        };&#xa;\end{tikzpicture}&#xa;\end{center}&#xa;&#xa;&#xa;\end{document}" style="text;whiteSpace=wrap;" vertex="1" parent="1">
          <mxGeometry x="550" y="260" width="210" height="440" as="geometry" />
        </mxCell>
      </root>
    </mxGraphModel>
  </diagram>
</mxfile>
